<svg width="21" height="21" viewBox="0 0 21 21" fill="none" xmlns="http://www.w3.org/2000/svg">
<mask id="path-1-outside-1_2017_1017" maskUnits="userSpaceOnUse" x="0" y="0" width="21" height="21" fill="black">
<rect fill="white" width="21" height="21"/>
<path fill-rule="evenodd" clip-rule="evenodd" d="M5.82468 2.29289C5.43415 1.90237 4.80099 1.90237 4.41047 2.29289L2.29289 4.41047C1.90237 4.80099 1.90237 5.43416 2.29289 5.82468L6.11771 9.64949C6.50823 10.04 6.50823 10.6732 6.11771 11.0637L2.29299 14.8884C1.90246 15.279 1.90246 15.9121 2.29299 16.3026L4.41056 18.4202C4.80109 18.8107 5.43425 18.8107 5.82478 18.4202L9.6495 14.5955C10.04 14.205 10.6732 14.205 11.0637 14.5955L14.7024 18.2342C15.0929 18.6247 15.7261 18.6247 16.1166 18.2342L18.2342 16.1166C18.6247 15.7261 18.6247 15.0929 18.2342 14.7024L14.5955 11.0637C14.205 10.6732 14.205 10.04 14.5955 9.6495L18.2343 6.01072C18.6248 5.62019 18.6248 4.98703 18.2343 4.5965L16.1167 2.47893C15.7262 2.08841 15.093 2.08841 14.7025 2.47893L11.0637 6.11771C10.6732 6.50823 10.04 6.50823 9.64949 6.11771L5.82468 2.29289Z"/>
</mask>
<path fill-rule="evenodd" clip-rule="evenodd" d="M5.82468 2.29289C5.43415 1.90237 4.80099 1.90237 4.41047 2.29289L2.29289 4.41047C1.90237 4.80099 1.90237 5.43416 2.29289 5.82468L6.11771 9.64949C6.50823 10.04 6.50823 10.6732 6.11771 11.0637L2.29299 14.8884C1.90246 15.279 1.90246 15.9121 2.29299 16.3026L4.41056 18.4202C4.80109 18.8107 5.43425 18.8107 5.82478 18.4202L9.6495 14.5955C10.04 14.205 10.6732 14.205 11.0637 14.5955L14.7024 18.2342C15.0929 18.6247 15.7261 18.6247 16.1166 18.2342L18.2342 16.1166C18.6247 15.7261 18.6247 15.0929 18.2342 14.7024L14.5955 11.0637C14.205 10.6732 14.205 10.04 14.5955 9.6495L18.2343 6.01072C18.6248 5.62019 18.6248 4.98703 18.2343 4.5965L16.1167 2.47893C15.7262 2.08841 15.093 2.08841 14.7025 2.47893L11.0637 6.11771C10.6732 6.50823 10.04 6.50823 9.64949 6.11771L5.82468 2.29289Z" fill="#FFFFEE"/>
<path d="M11.0637 6.11771L9.64949 4.70349L11.0637 6.11771ZM18.2343 6.01072L16.8201 4.5965L18.2343 6.01072ZM18.2343 4.5965L19.6485 3.18229L18.2343 4.5965ZM14.5955 11.0637L13.1813 12.4779L14.5955 11.0637ZM14.5955 9.6495L13.1813 8.23528L14.5955 9.6495ZM18.2342 14.7024L19.6484 13.2882L18.2342 14.7024ZM14.7024 18.2342L13.2882 19.6484L14.7024 18.2342ZM16.1166 18.2342L14.7024 16.82L16.1166 18.2342ZM4.41056 18.4202L5.82477 17.006L4.41056 18.4202ZM5.82478 18.4202L7.23899 19.8344L5.82478 18.4202ZM6.11771 9.64949L4.7035 11.0637L6.11771 9.64949ZM6.11771 11.0637L4.70349 9.6495L6.11771 11.0637ZM2.29289 4.41047L0.87868 2.99625L2.29289 4.41047ZM3.70711 5.82468L5.82468 3.70711L2.99625 0.878679L0.87868 2.99625L3.70711 5.82468ZM7.53192 8.23528L3.70711 4.41047L0.87868 7.23889L4.7035 11.0637L7.53192 8.23528ZM3.7072 16.3026L7.53192 12.4779L4.70349 9.6495L0.878774 13.4742L3.7072 16.3026ZM5.82477 17.006L3.7072 14.8884L0.878774 17.7169L2.99635 19.8344L5.82477 17.006ZM8.23528 13.1813L4.41056 17.006L7.23899 19.8344L11.0637 16.0097L8.23528 13.1813ZM16.1166 16.82L12.4779 13.1813L9.6495 16.0097L13.2882 19.6484L16.1166 16.82ZM16.82 14.7024L14.7024 16.82L17.5308 19.6484L19.6484 17.5308L16.82 14.7024ZM13.1813 12.4779L16.82 16.1166L19.6484 13.2882L16.0097 9.6495L13.1813 12.4779ZM16.8201 4.5965L13.1813 8.23528L16.0097 11.0637L19.6485 7.42493L16.8201 4.5965ZM14.7025 3.89315L16.8201 6.01072L19.6485 3.18229L17.5309 1.06472L14.7025 3.89315ZM12.4779 7.53192L16.1167 3.89314L13.2883 1.06472L9.64949 4.70349L12.4779 7.53192ZM4.41047 3.70711L8.23528 7.53192L11.0637 4.70349L7.23889 0.87868L4.41047 3.70711ZM9.64949 4.70349C10.04 4.31297 10.6732 4.31297 11.0637 4.70349L8.23528 7.53192C9.40685 8.70349 11.3063 8.7035 12.4779 7.53192L9.64949 4.70349ZM17.5309 1.06472C16.3593 -0.106853 14.4598 -0.106857 13.2883 1.06472L16.1167 3.89314C15.7262 4.28367 15.093 4.28367 14.7025 3.89315L17.5309 1.06472ZM19.6485 7.42493C20.8201 6.25336 20.8201 4.35386 19.6485 3.18229L16.8201 6.01072C16.4295 5.62019 16.4295 4.98703 16.8201 4.5965L19.6485 7.42493ZM16.0097 9.6495C16.4002 10.04 16.4002 10.6732 16.0097 11.0637L13.1813 8.23528C12.0097 9.40686 12.0097 11.3063 13.1813 12.4779L16.0097 9.6495ZM19.6484 17.5308C20.82 16.3592 20.82 14.4597 19.6484 13.2882L16.82 16.1166C16.4294 15.7261 16.4294 15.0929 16.82 14.7024L19.6484 17.5308ZM13.2882 19.6484C14.4597 20.82 16.3592 20.82 17.5308 19.6484L14.7024 16.82C15.0929 16.4294 15.7261 16.4294 16.1166 16.82L13.2882 19.6484ZM11.0637 16.0097C10.6732 16.4002 10.04 16.4002 9.6495 16.0097L12.4779 13.1813C11.3063 12.0097 9.40686 12.0097 8.23528 13.1813L11.0637 16.0097ZM2.99635 19.8344C4.16792 21.006 6.06742 21.006 7.23899 19.8344L4.41056 17.006C4.80108 16.6155 5.43425 16.6155 5.82477 17.006L2.99635 19.8344ZM0.878774 13.4742C-0.292797 14.6458 -0.292801 16.5453 0.878774 17.7169L3.7072 14.8884C4.09773 15.279 4.09772 15.9121 3.7072 16.3026L0.878774 13.4742ZM4.7035 11.0637C4.31297 10.6732 4.31297 10.04 4.70349 9.6495L7.53192 12.4779C8.70349 11.3064 8.7035 9.40686 7.53192 8.23528L4.7035 11.0637ZM5.82468 3.70711C5.43415 4.09763 4.80099 4.09763 4.41047 3.70711L7.23889 0.87868C6.06732 -0.292891 4.16783 -0.292896 2.99625 0.878679L5.82468 3.70711ZM0.87868 2.99625C-0.292894 4.16783 -0.292893 6.06732 0.87868 7.23889L3.70711 4.41047C4.09763 4.80099 4.09763 5.43415 3.70711 5.82468L0.87868 2.99625Z" fill="#A93C1D" mask="url(#path-1-outside-1_2017_1017)"/>
</svg>
